{"title":"Shes Out Of My League TS XViD - IMAGiNE","uid":5449349,"size":1505708635,"categoryP":"video","categoryS":"movies","magnet":"?xt=urn:btih:cf916918b4871210d29fa332989cf69a3f207544&amp;dn=Shes+Out+Of+My+League+TS+XViD+-+IMAGiNE&amp;tr=udp%3A%2F%2Ftracker.openbittorrent.com%3A80&amp;tr=udp%3A%2F%2Fopen.demonii.com%3A1337&amp;tr=udp%3A%2F%2Ftracker.coppersurfer.tk%3A6969&amp;tr=udp%3A%2F%2Fexodus.desync.com%3A6969","seeders":0,"leechers":1,"uploader":"IwannaFan2","files":3,"time":1269125673,"description":"Filename:\nShes Out Of My League TS XViD - IMAGiNE\n &lt;a href=&quot;\nhttp://www.imdb.com/title/tt0815236/&quot; rel=&quot;nofollow&quot; target=&quot;_NEW&quot;&gt;\nhttp://www.imdb.com/title/tt0815236/&lt;/a&gt;\n\nDETAILS:\n\nVideo\nID                               : 0\nFormat                           : MPEG-4 Visual\nFormat profile                   : Advanced Simple@L5\nFormat settings, BVOP            : Yes\nFormat settings, QPel            : No\nFormat settings, GMC             : No warppoints\nFormat settings, Matrix          : Default (MPEG)\nMuxing mode                      : Packed bitstream\nCodec ID                         : XVID\nCodec ID/Hint                    : XviD\nDuration                         : 1h 40mn\nBit rate                         : 1 824 Kbps\nWidth                            : 704 pixels\nHeight                           : 288 pixels\nDisplay aspect ratio             : 2.444\nFrame rate                       : 23.976 fps\nResolution                       : 24 bits\nColorimetry                      : 4:2:0\nScan type                        : Progressive\nBits/(Pixel*Frame)               : 0.375\nStream size                      : 1.28 GiB (93%)\nWriting library                  : XviD 1.2.1 (UTC 2008-12-04)\n\nAudio\nID                               : 1\nFormat                           : MPEG Audio\nFormat version                   : Version 1\nFormat profile                   : Layer 3\nCodec ID                         : 55\nCodec ID/Hint                    : MP3\nDuration                         : 1h 40mn\nBit rate mode                    : Constant\nBit rate                         : 128 Kbps\nChannel(s)                       : 2 channels\nSampling rate                    : 48.0 KHz\nResolution                       : 16 bits\nStream size                      : 92.1 MiB (7%)\nAlignment                        : Split accross interleaves\nInterleave, duration             : 42 ms (1.00 video frame)\nInterleave, preload duration     : 500 ms\n\n\nNOTES:\n\nIMAGiNE bringing you another release.....She's Out Of My League.\nHere's another nice TS for ya all ....no chairs and only i scene (5secs) where you see someone get up.\nDone all the normal stuff thats needed to both video and audio......tweak colours,rotate videoetc....hiss removal add\nbass etc....to audio.\n","torrent":{"xt":"urn:btih:cf916918b4871210d29fa332989cf69a3f207544","amp;dn":"Shes+Out+Of+My+League+TS+XViD+-+IMAGiNE","amp;tr":["udp%3A%2F%2Ftracker.openbittorrent.com%3A80","udp%3A%2F%2Fopen.demonii.com%3A1337","udp%3A%2F%2Ftracker.coppersurfer.tk%3A6969","udp%3A%2F%2Fexodus.desync.com%3A6969"],"infoHash":"cf916918b4871210d29fa332989cf69a3f207544","infoHashBuffer":{"type":"Buffer","data":[207,145,105,24,180,135,18,16,210,159,163,50,152,156,246,154,63,32,117,68]},"announce":[],"urlList":[]}}